<svg xmlns="http://www.w3.org/2000/svg" viewBox="0 0 810 540" width="810" height="540">
  <rect width="810" height="540" fill="#003399"/>
  <g fill="#FFCC00">
    <!-- Top star -->
    <polygon points="405,90 410.854,104.389 426.18,104.389 413.663,113.611 419.517,127.999 405,118.778 390.483,127.999 396.337,113.611 383.82,104.389 399.146,104.389" />
    
    <!-- Top right stars -->
    <polygon points="540,135 545.854,149.389 561.18,149.389 548.663,158.611 554.517,172.999 540,163.778 525.483,172.999 531.337,158.611 518.82,149.389 534.146,149.389" />
    <polygon points="607.5,225 613.354,239.389 628.68,239.389 616.163,248.611 622.017,262.999 607.5,253.778 592.983,262.999 598.837,248.611 586.32,239.389 601.646,239.389" />
    <polygon points="607.5,315 613.354,329.389 628.68,329.389 616.163,338.611 622.017,352.999 607.5,343.778 592.983,352.999 598.837,338.611 586.32,329.389 601.646,329.389" />
    <polygon points="540,405 545.854,419.389 561.18,419.389 548.663,428.611 554.517,442.999 540,433.778 525.483,442.999 531.337,428.611 518.82,419.389 534.146,419.389" />
    
    <!-- Bottom star -->
    <polygon points="405,450 410.854,464.389 426.18,464.389 413.663,473.611 419.517,487.999 405,478.778 390.483,487.999 396.337,473.611 383.82,464.389 399.146,464.389" />
    
    <!-- Bottom left stars -->
    <polygon points="270,405 275.854,419.389 291.18,419.389 278.663,428.611 284.517,442.999 270,433.778 255.483,442.999 261.337,428.611 248.82,419.389 264.146,419.389" />
    <polygon points="202.5,315 208.354,329.389 223.68,329.389 211.163,338.611 217.017,352.999 202.5,343.778 187.983,352.999 193.837,338.611 181.32,329.389 196.646,329.389" />
    <polygon points="202.5,225 208.354,239.389 223.68,239.389 211.163,248.611 217.017,262.999 202.5,253.778 187.983,262.999 193.837,248.611 181.32,239.389 196.646,239.389" />
    <polygon points="270,135 275.854,149.389 291.18,149.389 278.663,158.611 284.517,172.999 270,163.778 255.483,172.999 261.337,158.611 248.82,149.389 264.146,149.389" />
    
    <!-- Left stars -->
    <polygon points="157.5,180 163.354,194.389 178.68,194.389 166.163,203.611 172.017,217.999 157.5,208.778 142.983,217.999 148.837,203.611 136.32,194.389 151.646,194.389" />
    <polygon points="157.5,360 163.354,374.389 178.68,374.389 166.163,383.611 172.017,397.999 157.5,388.778 142.983,397.999 148.837,383.611 136.32,374.389 151.646,374.389" />
    
    <!-- Right stars -->
    <polygon points="652.5,180 658.354,194.389 673.68,194.389 661.163,203.611 667.017,217.999 652.5,208.778 637.983,217.999 643.837,203.611 631.32,194.389 646.646,194.389" />
    <polygon points="652.5,360 658.354,374.389 673.68,374.389 661.163,383.611 667.017,397.999 652.5,388.778 637.983,397.999 643.837,383.611 631.32,374.389 646.646,374.389" />
  </g>
</svg>